<svg width="144" height="30" viewBox="0 0 144 30" fill="none" xmlns="http://www.w3.org/2000/svg">
<path d="M143.856 6.65925C144.048 7.14138 144.048 7.67172 143.856 8.15385C143.663 8.63598 143.277 8.97347 142.843 9.16632C142.361 9.35917 141.831 9.35917 141.349 9.16632C140.867 8.97347 140.529 8.58777 140.336 8.15385C140.143 7.67172 140.143 7.14138 140.336 6.65925C140.529 6.17712 140.915 5.83963 141.349 5.64677C141.831 5.45392 142.361 5.45392 142.843 5.64677C143.325 5.83963 143.663 6.17712 143.856 6.65925ZM142.699 5.93606C142.313 5.79142 141.879 5.79142 141.493 5.93606C141.108 6.08069 140.818 6.41819 140.626 6.80389C140.481 7.18959 140.481 7.6235 140.626 8.05742C140.77 8.44312 141.108 8.7324 141.493 8.92525C141.879 9.06989 142.313 9.06989 142.699 8.92525C143.084 8.78062 143.373 8.44312 143.566 8.05742C143.711 7.67172 143.711 7.23781 143.566 6.80389C143.373 6.41819 143.084 6.08069 142.699 5.93606ZM142.506 7.57529L142.94 8.39492V8.44313L142.891 8.49134H142.554C142.506 8.49134 142.506 8.49134 142.506 8.44313L142.072 7.67172H141.734V8.44313V8.49134H141.686H141.397H141.349V8.44313V6.36997C141.349 6.32176 141.397 6.32176 141.397 6.32176H142.024C142.168 6.32176 142.313 6.32176 142.457 6.36997C142.602 6.41818 142.699 6.51461 142.747 6.61103C142.795 6.70746 142.843 6.8521 142.843 6.99674C142.843 7.14138 142.795 7.2378 142.747 7.33423C142.747 7.43065 142.65 7.52708 142.506 7.57529ZM142.409 6.99674C142.409 6.90031 142.361 6.80389 142.265 6.75567C142.168 6.70746 142.12 6.70746 142.024 6.70746H141.734V7.28602H142.072C142.168 7.28602 142.216 7.23781 142.313 7.18959C142.361 7.14138 142.409 7.09316 142.409 6.99674Z" fill="#04555E"/>
<path d="M22.1281 23.2444H24.6831L23.4779 20.9784H22.6584C21.8388 20.9784 21.5013 20.3034 21.5013 19.2427V4.10386C21.5013 1.74143 20.2479 0.246826 18.2231 0.246826H16.8733V2.51283H17.8375C18.5124 2.51283 18.9945 3.09139 18.9945 3.71815V3.76637V18.9052C18.9463 21.3641 19.573 23.2444 22.1281 23.2444Z" fill="#04555E"/>
<path d="M32.8787 6.36995C28.1542 6.27352 24.2493 10.0341 24.1529 14.759C24.1529 14.8072 24.1529 14.9036 24.1529 14.9518C24.0565 19.7731 27.9132 23.7266 32.7341 23.823C37.555 23.9195 41.5081 20.0624 41.6045 15.2411C41.7009 10.4198 37.8442 6.46637 33.0233 6.36995C33.0233 6.36995 32.9751 6.36995 32.8787 6.36995ZM32.9269 21.4124C29.5041 21.4124 26.8044 18.5678 26.8044 15.0001C26.708 11.6252 29.3595 8.78059 32.7341 8.68417C36.1087 8.58774 38.953 11.2395 39.0494 14.6144C39.0494 14.7108 39.0494 14.8554 39.0494 14.9518C39.0494 18.5678 36.3497 21.4124 32.9269 21.4124Z" fill="#04555E"/>
<path d="M79.0144 6.7074H73.7596V6.32169C73.7596 2.94679 75.929 2.41645 77.1825 2.41645C77.4235 2.41645 77.6646 2.41645 77.9056 2.46466L78.0984 2.51287V0.15044L77.9538 0.102225C77.6163 0.0540117 77.2789 0.0540161 76.9414 0.0540161C75.2059 0.0540161 71.2046 0.632568 71.2046 6.27348V6.65918H67.2032C65.7087 6.65918 65.0338 6.94846 64.5035 8.5877L61.1289 18.857C61.0325 19.1463 60.9361 19.4356 60.8396 19.8213L60.7914 20.0624L60.7432 19.8213C60.6468 19.4356 60.5504 19.1463 60.454 18.857L56.4526 6.7074H54.0422L50.0409 18.857C49.9444 19.1463 49.848 19.4838 49.7516 19.8695L49.7034 20.1106L49.6552 19.8695C49.5588 19.4838 49.4623 19.1463 49.3659 18.857L46.0395 8.5877C45.5092 6.94846 44.8825 6.65918 43.3398 6.65918H40.5437L41.7971 8.92519H42.6649C43.2434 8.92519 43.4844 9.06983 43.6291 9.55196L48.3053 23.2444H51.005L54.9582 11.2876C55.0546 11.0466 55.1028 10.7573 55.1992 10.5162C55.2474 10.3716 55.2474 10.2752 55.2956 10.1787L55.3438 9.93766L55.392 10.1787C55.4402 10.2752 55.4403 10.4198 55.4885 10.5644C55.5367 10.8055 55.6331 11.0948 55.6813 11.2876L59.6826 23.2444H62.3341L67.0104 9.55196C67.1068 9.11804 67.5407 8.87697 67.9746 8.92519H71.301V23.2444H73.8078V8.92519H77.8574L79.0144 6.7074Z" fill="#04555E"/>
<path d="M86.6316 6.32169C81.9072 6.22526 78.0022 9.98587 77.9058 14.7107C77.9058 14.7589 77.9058 14.8554 77.9058 14.9036C77.8094 19.7249 81.6661 23.6783 86.487 23.7748C91.3079 23.8712 95.261 20.0142 95.3574 15.1929C95.4539 10.3716 91.5971 6.41812 86.7763 6.32169C86.728 6.32169 86.6798 6.27348 86.6316 6.32169ZM86.6316 21.3159C83.2088 21.3159 80.5091 18.4713 80.5091 14.9036C80.4127 11.5287 83.0642 8.68412 86.4388 8.5877C89.8134 8.49127 92.6577 11.143 92.7542 14.5179C92.7542 14.6143 92.7542 14.7589 92.7542 14.8554C92.7542 18.4713 90.0545 21.3159 86.6316 21.3159Z" fill="#04555E"/>
<path d="M105.626 9.06981L106.686 6.70738C106.252 6.56274 105.818 6.51453 105.336 6.51453C103.263 6.61095 101.383 7.86449 100.515 9.793L100.371 10.0341V9.35909C100.371 7.47879 99.2137 6.65917 97.3818 6.65917H94.4893L95.6463 8.92517H96.6104C97.4782 8.92517 97.8639 9.35909 97.8639 10.468V23.2444H100.419V16.2535C100.467 11.6733 102.203 9.26266 105.626 9.06981Z" fill="#04555E"/>
<path d="M121.197 9.45551C121.149 9.16623 121.342 8.87695 121.631 8.87695C121.679 8.87695 121.727 8.87695 121.776 8.87695H123.222L124.523 6.75558H120.86C119.558 6.75558 118.931 7.38235 118.931 8.63589V8.92516L118.787 8.73231C118.208 7.86448 116.81 6.41809 113.58 6.41809C109.241 6.41809 106.445 9.69657 106.445 14.7107C106.445 17.1214 107.12 19.2427 108.47 20.7855C109.771 22.3284 111.748 23.1962 113.773 23.148C115.99 23.148 117.63 22.3283 118.69 20.7373L118.835 20.5445V20.7855C118.835 20.9784 118.835 21.1712 118.835 21.3641V22.7623C118.835 25.9443 116.81 27.7282 113.291 27.7282H113.098V29.946H113.339C117.147 29.946 121.245 28.0175 121.245 22.6658L121.197 9.45551ZM114.062 20.882C110.929 20.882 108.904 18.4231 108.904 14.6143C108.904 10.8055 110.687 8.53946 113.773 8.53946C117.147 8.53946 118.787 10.5162 118.787 14.6143C118.787 18.7124 117.147 20.882 114.062 20.882Z" fill="#04555E"/>
<path d="M6.74925 29.946H6.84566C10.6542 29.946 14.7519 28.0175 14.7519 22.6658V9.45551C14.7037 9.16623 14.8966 8.87695 15.1858 8.87695C15.234 8.87695 15.2822 8.87695 15.3304 8.87695H16.7767V6.75558H14.4145C13.1128 6.75558 12.4861 7.38235 12.4861 8.63589V8.92516L12.3415 8.73231C11.763 7.86448 10.3649 6.41809 7.13492 6.41809C2.79612 6.41809 0 9.69657 0 14.7107C0 17.1214 0.674925 19.2427 2.02477 20.7855C3.32642 22.3284 5.30298 23.1962 7.32775 23.148C9.54536 23.148 11.1845 22.3283 12.2451 20.7373L12.3897 20.5445V20.7855C12.3897 20.9784 12.3897 21.1712 12.3897 21.3641V22.7623C12.3897 25.9443 10.3649 27.7282 6.79746 27.7282H6.60462V29.946H6.74925ZM7.66522 20.882C4.53164 20.882 2.50686 18.4231 2.50686 14.6143C2.50686 10.8055 4.29059 8.53946 7.37596 8.53946C10.7506 8.53946 12.3897 10.5162 12.3897 14.6143C12.3897 18.7124 10.7024 20.882 7.66522 20.882Z" fill="#04555E"/>
<path d="M132.141 6.32173C129.971 6.27352 127.898 7.14135 126.404 8.63595C124.813 10.227 123.993 12.4448 123.993 15.0001C123.993 20.0142 127.609 23.6302 132.623 23.6302C133.732 23.6302 134.84 23.4373 135.853 23.0034L135.997 22.9552L135.274 20.7856L135.081 20.8338C134.31 21.1231 133.491 21.2677 132.671 21.2677C129.248 21.2677 126.741 18.8089 126.548 15.2411V15.1447H138.986V15.0001C138.986 14.9036 139.035 14.2769 139.035 13.8912C139.083 10.1306 136.962 6.32173 132.141 6.32173ZM126.741 13.1197V13.0233C127.32 10.227 129.441 8.4431 132.092 8.4431C134.551 8.4431 136.287 10.227 136.48 13.0233V13.1197H126.741Z" fill="#04555E"/>
</svg>
