<svg width="33" height="40" viewBox="0 0 33 40" fill="none" xmlns="http://www.w3.org/2000/svg">
<path d="M30.8017 24.5563C35.3362 16.7292 32.633 6.74001 24.7412 2.19945C16.8495 -2.3411 6.77769 0.383231 2.1996 8.21029C-1.50647 14.6103 -0.460052 22.6968 4.81565 27.9293L16.5007 39.5185L27.9241 28.1888L19.5091 19.8428L19.1603 19.4968L18.4627 18.8049L14.4078 14.7833C13.5794 15.8211 13.6666 17.2914 14.6258 18.2428L24.0436 27.5833C24.218 27.7563 24.3052 27.9725 24.3052 28.1888C24.3052 28.405 24.218 28.6212 24.0436 28.7942L21.9944 30.8266C21.8636 30.9996 21.6456 31.0861 21.4276 31.0861C21.2096 31.0861 20.9916 30.9996 20.8172 30.8266L11.3122 21.3995C8.56532 18.5887 8.56532 14.0914 11.3558 11.2806C14.1898 8.46975 18.7679 8.46975 21.602 11.2806C23.1716 12.8373 23.9128 14.9563 23.6948 17.1184C23.6512 17.2914 23.6948 17.4644 23.8256 17.6374L25.5696 19.3671C26.7033 15.9509 25.8313 12.1887 23.2588 9.63732C19.2911 6.13461 13.2306 6.48055 9.69894 10.3725C6.47248 13.9617 6.42888 19.3671 9.65534 22.9995L19.1167 32.3834C19.4655 32.6861 19.5091 33.2482 19.2039 33.5942C19.2039 33.5942 19.2039 33.6374 19.1603 33.6374L18.9423 33.8536L17.1111 35.6266C16.9367 35.7996 16.7187 35.8861 16.4571 35.9293C16.2391 35.9293 16.0211 35.8428 15.8467 35.6699L6.42888 26.3293C0.891573 20.8374 0.891573 11.9292 6.42888 6.43731C11.9662 0.945397 20.948 0.945397 26.4853 6.43731C28.6217 8.55624 30.0605 11.3238 30.4965 14.3076C30.9325 17.2049 30.4093 20.1887 29.0577 22.8266V22.8698L30.8017 24.5563Z" fill="#B6D6DA"/>
</svg>
