<svg width="31" height="25" viewBox="0 0 31 25" fill="none" xmlns="http://www.w3.org/2000/svg">
<path d="M16.1556 10.1246C16.1556 11.0445 15.5947 11.5737 14.6055 11.5737H13.3065V8.67645H14.6113C15.5947 8.67645 16.1556 9.1999 16.1556 10.1246ZM18.6949 13.4712C18.6949 13.9148 19.0798 14.2034 19.6841 14.2034C20.4539 14.2034 21.0312 13.7175 21.0312 13.0324V12.6206L19.7745 12.7004C19.0635 12.7486 18.6949 13.0112 18.6949 13.4712ZM30.7919 2.67317V21.4903C30.7919 22.9067 29.6431 24.0565 28.2257 24.0565H2.56624C1.14985 24.0565 0 22.9077 0 21.4903V2.67317C0 1.25678 1.14889 0.106934 2.56624 0.106934H28.2257C29.6421 0.106934 30.7919 1.25582 30.7919 2.67317ZM6.83271 8.99109C7.28207 9.02862 7.73046 8.7669 8.01432 8.43493C8.2924 8.09238 8.47426 7.6334 8.42614 7.16769C8.03067 7.18405 7.53898 7.42941 7.25513 7.77196C6.99821 8.0664 6.77979 8.54174 6.83271 8.99109ZM10.0725 12.9737C10.0619 12.9631 9.02464 12.5677 9.01406 11.3697C9.00348 10.37 9.83195 9.88884 9.86947 9.8619C9.39895 9.16718 8.67151 9.09213 8.42037 9.07577C7.76799 9.03824 7.21182 9.4443 6.90199 9.4443C6.58638 9.4443 6.11586 9.09116 5.603 9.10271C4.93522 9.1133 4.30977 9.49337 3.973 10.0967C3.2725 11.3052 3.79114 13.0901 4.47047 14.0735C4.80147 14.5595 5.20271 15.0944 5.72712 15.0733C6.22363 15.0521 6.42184 14.7529 7.02034 14.7529C7.62462 14.7529 7.79589 15.0733 8.31934 15.0685C8.86492 15.0579 9.20169 14.5825 9.53847 14.0957C9.907 13.5395 10.0619 13.0055 10.0735 12.9728L10.0725 12.9737ZM17.3103 10.1198C17.3103 8.69762 16.3211 7.72481 14.9096 7.72481H12.173V15.0165H13.3065V12.5253H14.873C16.3057 12.5253 17.3103 11.5419 17.3103 10.1198ZM22.1214 11.3861C22.1214 10.3334 21.2766 9.65406 19.9833 9.65406C18.7806 9.65406 17.8934 10.344 17.8607 11.2841H18.8816C18.9672 10.8347 19.3839 10.5412 19.9506 10.5412C20.6454 10.5412 21.0302 10.8616 21.0302 11.4611V11.8624L19.6187 11.948C18.3033 12.0279 17.5932 12.5686 17.5932 13.5039C17.5932 14.4498 18.3254 15.0752 19.3781 15.0752C20.0892 15.0752 20.7464 14.7173 21.0456 14.1447H21.0668V15.0213H22.1147V11.3861H22.1214ZM27.5849 9.72334H26.436L25.1052 14.0322H25.0841L23.7533 9.72334H22.5611L24.4798 15.0319L24.3788 15.3523C24.2075 15.8979 23.9246 16.1115 23.4223 16.1115C23.3309 16.1115 23.1606 16.1009 23.0903 16.0951V16.9717C23.1548 16.9929 23.4377 16.9987 23.5233 16.9987C24.6299 16.9987 25.1485 16.5763 25.6027 15.2984L27.5849 9.72334Z" fill="#14110F"/>
</svg>
