<svg width="83" height="18" viewBox="0 0 83 18" fill="none" xmlns="http://www.w3.org/2000/svg">
<path d="M12.9878 1.35727C12.1543 0.407281 10.6476 0 8.72027 0H3.12638C2.73204 0 2.39696 0.28679 2.33522 0.675649L0.00604649 15.4478C-0.0402581 15.7391 0.18529 16.003 0.480544 16.003H3.93397L4.80131 10.5017L4.77442 10.674C4.83616 10.2851 5.16876 9.99831 5.5626 9.99831H7.20367C10.4276 9.99831 12.9519 8.68884 13.6893 4.90082C13.7112 4.78879 13.7301 4.67975 13.7466 4.5732C13.6535 4.52391 13.6535 4.52391 13.7466 4.5732C13.9661 3.17311 13.7451 2.22013 12.9878 1.35727Z" fill="#27346A"/>
<path d="M13.6893 4.90082C12.9519 8.68884 10.4276 9.99831 7.20367 9.99831L5.56133 9.99811C5.16749 9.99811 4.83567 10.2851 4.77442 10.674L3.6947 17.5139C3.65437 17.7688 3.85154 17.9998 4.10945 17.9998H7.02067C7.36521 17.9998 7.65848 17.7489 7.71225 17.4088L7.74063 17.2605L8.28931 13.7831L8.32467 13.5909C8.37844 13.2509 8.6717 12.9999 9.01625 12.9999H9.45191C12.272 12.9999 14.4802 11.8543 15.1255 8.54075C15.3948 7.1561 15.2554 5.99998 14.5429 5.1879C14.3268 4.94194 14.0592 4.739 13.7466 4.5732C13.7301 4.67975 13.7112 4.78879 13.6893 4.90082Z" fill="#009CDE"/>
<path d="M12.9748 4.26571C12.8622 4.23285 12.7462 4.20298 12.6267 4.17659C12.5072 4.1502 12.3838 4.1268 12.2573 4.10638C11.8142 4.03469 11.3302 4.00083 10.8104 4.00083H6.4254C6.31736 4.00083 6.21479 4.02523 6.12318 4.06954C5.92053 4.16663 5.77066 4.35782 5.73382 4.59233L4.80131 10.5017L4.77442 10.674C4.83616 10.2851 5.16876 9.99831 5.5626 9.99831H7.20367C10.4276 9.99831 12.9519 8.68884 13.6893 4.90082C13.7112 4.78879 13.7301 4.67975 13.7466 4.5732C13.5598 4.47462 13.3581 4.38969 13.1406 4.31749C13.0863 4.29957 13.031 4.28214 12.9748 4.26571Z" fill="#1F264F"/>
<path fill-rule="evenodd" clip-rule="evenodd" d="M32.0796 2.55576C31.3164 2.03109 30.3205 1.76812 29.0919 1.76812H24.3353C23.9587 1.76812 23.7506 1.95649 23.7111 2.33286L21.7788 14.4621C21.7587 14.5812 21.7885 14.6902 21.8679 14.7892C21.9469 14.8885 22.0462 14.9378 22.1651 14.9378H24.4245C24.8207 14.9378 25.0385 14.7499 25.0785 14.3731L25.6136 11.1031C25.6331 10.9446 25.7028 10.8158 25.8217 10.7166C25.9406 10.6175 26.0892 10.5527 26.2676 10.523C26.446 10.4936 26.6142 10.4788 26.773 10.4788C26.9314 10.4788 27.1196 10.4888 27.3379 10.5085C27.5558 10.5283 27.6946 10.5379 27.7541 10.5379C29.4584 10.5379 30.7962 10.0577 31.7675 9.09622C32.7383 8.13511 33.2242 6.80245 33.2242 5.09769C33.2242 3.92849 32.8424 3.08125 32.0796 2.55576ZM29.6271 6.19773C29.5277 6.8915 29.2703 7.34711 28.8542 7.56519C28.4379 7.78355 27.8434 7.89213 27.0705 7.89213L26.0894 7.92185L26.5949 4.74085C26.6344 4.52304 26.7631 4.414 26.9813 4.414H27.5463C28.3387 4.414 28.9138 4.52822 29.2705 4.75575C29.6271 4.98383 29.746 5.46461 29.6271 6.19773Z" fill="#003087"/>
<path d="M55.6989 6.55417C55.6989 6.4553 55.659 6.36098 55.5803 6.27193C55.5007 6.18279 55.4114 6.13799 55.3126 6.13799H53.0235C52.8051 6.13799 52.6268 6.23759 52.4884 6.43522L49.3372 11.0731L48.0292 6.61378C47.9297 6.29692 47.7119 6.13799 47.3752 6.13799H45.1452C45.0459 6.13799 44.9568 6.1827 44.878 6.27193C44.7985 6.36098 44.759 6.45539 44.759 6.55417C44.759 6.59415 44.9523 7.17852 45.3387 8.30818C45.725 9.43812 46.1412 10.657 46.5872 11.9651C47.0332 13.273 47.2659 13.967 47.2858 14.0458C45.6605 16.2657 44.8482 17.4549 44.8482 17.6132C44.8482 17.8711 44.9768 17.9997 45.2346 17.9997H47.5238C47.7417 17.9997 47.9199 17.9009 48.0589 17.7026L55.6397 6.76225C55.6791 6.72291 55.6989 6.65385 55.6989 6.55417Z" fill="#003087"/>
<path fill-rule="evenodd" clip-rule="evenodd" d="M40.9818 6.13807H43.2412C43.3599 6.13807 43.4589 6.18778 43.5382 6.28673C43.6173 6.38596 43.6469 6.49482 43.6274 6.61377L42.4086 14.3729C42.3491 14.7498 42.1308 14.9377 41.7545 14.9377H39.7033C39.4456 14.9377 39.3168 14.7796 39.3168 14.4621C39.3168 14.2839 39.3563 14.0757 39.4358 13.8379C39.079 14.2345 38.6033 14.5514 38.0088 14.7892C37.4143 15.0268 36.8392 15.1459 36.2846 15.1459C35.1349 15.1459 34.2185 14.7996 33.5347 14.1054C32.851 13.412 32.509 12.4806 32.509 11.3111C32.509 9.86445 33.0093 8.60567 34.0103 7.53543C35.011 6.4652 36.2251 5.92999 37.652 5.92999C38.9997 5.92999 39.9412 6.32681 40.4763 7.11926C40.5358 6.4652 40.7039 6.13807 40.9818 6.13807ZM37.5036 12.7379C38.2364 12.7379 38.856 12.4956 39.3615 12.0095C39.8669 11.5244 40.1196 10.9148 40.1196 10.1815C40.1196 9.60667 39.9361 9.15569 39.5697 8.82857C39.2027 8.50172 38.7419 8.33816 38.1872 8.33816C37.4537 8.33816 36.8392 8.59086 36.3441 9.09626C35.8484 9.60158 35.6008 10.2214 35.6008 10.9542C35.6008 11.5096 35.7741 11.9457 36.1211 12.2623C36.4677 12.5796 36.9285 12.7379 37.5036 12.7379Z" fill="#003087"/>
<path fill-rule="evenodd" clip-rule="evenodd" d="M62.8638 1.76807C64.0926 1.76807 65.0883 2.03104 65.8514 2.55571C66.6143 3.08119 66.996 3.92844 66.9959 5.09763C66.9959 6.80239 66.5103 8.13506 65.5392 9.09616C64.5679 10.0576 63.2304 10.5379 61.5258 10.5379C61.4667 10.5379 61.3276 10.5282 61.1096 10.5084C60.8915 10.4887 60.7033 10.4787 60.545 10.4787C60.386 10.4787 60.2178 10.4935 60.0396 10.523C59.861 10.5527 59.7125 10.6175 59.5936 10.7165C59.4745 10.8157 59.4051 10.9446 59.3855 11.1031L58.8503 14.5514C58.7709 14.8091 58.6124 14.9378 58.3746 14.9378H55.937C55.818 14.9378 55.7184 14.8884 55.6398 14.7892C55.5602 14.6901 55.5305 14.5812 55.5506 14.4621L57.4829 2.33281C57.5223 1.95643 57.7403 1.76807 58.137 1.76807H62.8638ZM60.8423 7.89199C61.7142 7.89199 62.3682 7.74342 62.8043 7.44619C63.2401 7.14869 63.4584 6.58404 63.4584 5.75151C63.4584 5.35524 63.3396 5.05283 63.1016 4.84475C62.8638 4.63666 62.6157 4.51308 62.3585 4.47319C62.1004 4.43366 61.7536 4.41385 61.3177 4.41385H60.7828C60.5644 4.41385 60.4356 4.52289 60.3964 4.7407L59.8909 7.9217L60.8423 7.89199Z" fill="#009CDE"/>
<path d="M82.2766 1.76807H80.0769C79.8583 1.76807 79.7297 1.87711 79.6904 2.09519L77.7579 14.4622L77.7281 14.5216C77.7281 14.6212 77.7678 14.7149 77.8473 14.8041C77.9261 14.8931 78.0256 14.9378 78.1444 14.9378H80.1067C80.4827 14.9378 80.6909 14.7498 80.731 14.373L82.6633 2.21377V2.18424C82.6632 1.90682 82.534 1.76807 82.2766 1.76807Z" fill="#009CDE"/>
<path fill-rule="evenodd" clip-rule="evenodd" d="M77.0147 6.13802H74.7552C74.4776 6.13802 74.3096 6.46514 74.2502 7.11921C73.7343 6.32675 72.7935 5.92993 71.4257 5.92993C69.9988 5.92993 68.7846 6.46514 67.784 7.53538C66.7831 8.60561 66.2828 9.8644 66.2828 11.311C66.2828 12.4806 66.6246 13.412 67.3083 14.1054C67.992 14.7995 68.9086 15.1459 70.0585 15.1459C70.633 15.1459 71.2177 15.0268 71.8122 14.7891C72.4068 14.5513 72.8722 14.2344 73.2097 13.8379C73.2097 13.8578 73.1895 13.9468 73.1501 14.1053C73.1102 14.2641 73.0906 14.3832 73.0906 14.462C73.0906 14.7795 73.2191 14.9376 73.4772 14.9376H75.5286C75.9046 14.9376 76.123 14.7497 76.1823 14.3729L77.4013 6.61371C77.4208 6.49476 77.3911 6.38591 77.312 6.28668C77.2325 6.18772 77.1337 6.13802 77.0147 6.13802ZM73.1352 11.9947C72.6298 12.4902 72.0205 12.7378 71.307 12.7378C70.732 12.7378 70.2666 12.5795 69.9097 12.2622C69.5529 11.9456 69.3745 11.5096 69.3745 10.9542C69.3745 10.2213 69.6222 9.60152 70.1178 9.09621C70.6128 8.5908 71.2276 8.3381 71.961 8.3381C72.5154 8.3381 72.9763 8.50166 73.3433 8.82851C73.7097 9.15563 73.8934 9.60661 73.8934 10.1814C73.8933 10.8948 73.6405 11.4995 73.1352 11.9947Z" fill="#009CDE"/>
</svg>
