<svg width="129" height="27" viewBox="0 0 129 27" fill="none" xmlns="http://www.w3.org/2000/svg">
<path d="M9.22211 16.9611L10.5424 9.21308H12.6543L11.333 16.9611H9.22211ZM18.963 9.38011C18.5447 9.22314 17.889 9.05469 17.0703 9.05469C14.9834 9.05469 13.5135 10.1056 13.501 11.6117C13.4892 12.725 14.5504 13.3461 15.3514 13.7167C16.1735 14.0966 16.4499 14.3387 16.4459 14.6778C16.4406 15.1972 15.7894 15.4344 15.1824 15.4344C14.3371 15.4344 13.8881 15.3169 13.1945 15.0278L12.9223 14.9046L12.6259 16.6391C13.1192 16.8555 14.0313 17.0428 14.9784 17.0525C17.1985 17.0525 18.6396 16.0136 18.656 14.4052C18.6639 13.5238 18.1013 12.8531 16.8828 12.3001C16.1447 11.9416 15.6926 11.7025 15.6974 11.3395C15.6974 11.0175 16.08 10.6731 16.9069 10.6731C17.5974 10.6624 18.0978 10.813 18.4876 10.9699L18.6768 11.0593L18.963 9.38011ZM24.3976 9.21297H22.7658C22.2603 9.21297 21.8819 9.35094 21.6599 9.8555L18.5235 16.956H20.7411C20.7411 16.956 21.1036 16.0013 21.1856 15.7917C21.428 15.7917 23.5824 15.795 23.8903 15.795C23.9535 16.0663 24.1473 16.956 24.1473 16.956H26.1069L24.3976 9.21297ZM21.8085 14.2162C21.9832 13.7698 22.6499 12.0503 22.6499 12.0503C22.6375 12.0709 22.8233 11.6017 22.9299 11.3108L23.0726 11.9788C23.0726 11.9788 23.477 13.8283 23.5616 14.2161L21.8085 14.2162ZM7.42928 9.21297L5.36169 14.4968L5.14143 13.4231C4.75649 12.1853 3.55727 10.8442 2.2166 10.1728L4.10719 16.9488L6.34164 16.9463L9.66646 9.21289L7.42928 9.21297Z" fill="#0E4595"/>
<path d="M3.43244 9.21269H0.0269932L0 9.37389C2.6494 10.0152 4.40241 11.5651 5.13028 13.4276L4.38979 9.86705C4.26198 9.37643 3.89113 9.22978 3.43244 9.21269Z" fill="#F2AE14"/>
<path fill-rule="evenodd" clip-rule="evenodd" d="M34.1069 0H60.0807V16.3519C60.1452 16.4391 60.1896 16.5369 60.2139 16.6632V17.1698C60.1896 17.2967 60.1452 17.4071 60.0807 17.5003V26.1069H34.1069V0Z" fill="white"/>
<path fill-rule="evenodd" clip-rule="evenodd" d="M34.1069 26.1069H60.2139V0H34.1069V26.1069Z" fill="url(#paint0_radial_820_5082)"/>
<path fill-rule="evenodd" clip-rule="evenodd" d="M36.446 11.3155L35.9465 10.1025L35.45 11.3155H36.446ZM47.4389 10.8342C47.3402 10.8903 47.2215 10.8964 47.0785 10.8964H46.1924V10.219H47.0902C47.2185 10.219 47.3515 10.2238 47.438 10.2707C47.5311 10.3172 47.5902 10.4116 47.5902 10.5411C47.5902 10.6755 47.5328 10.7803 47.4389 10.8342ZM53.7562 11.3155L53.2536 10.1025L52.754 11.3155H53.7562ZM41.9803 12.6311H41.2329L41.2286 10.2455L40.1725 12.6311H39.5325L38.4708 10.2403V12.6311H36.9878L36.7086 11.9511H35.19L34.9082 12.6311H34.1156L35.4195 9.58116H36.5043L37.7438 12.4707V9.58116H38.9356L39.8886 11.652L40.766 9.58116H41.9803V12.6311ZM44.9581 12.6311H42.5225V9.58116H44.9581V10.219H43.2533V10.7664H44.9163V11.3933L43.2533 11.3907V11.9998H44.9581V12.6311ZM48.3932 10.4051C48.3932 10.8872 48.0689 11.142 47.8811 11.2172C48.0402 11.2785 48.1754 11.3837 48.2389 11.475C48.3419 11.6237 48.3624 11.7629 48.3624 12.0311V12.6311H47.6267L47.6246 12.2476C47.6246 12.0663 47.6419 11.802 47.5063 11.6559C47.3998 11.5468 47.2393 11.5242 46.9759 11.5242H46.1924V12.6311H45.4637V9.58116H47.1424C47.5128 9.58116 47.7885 9.59334 48.025 9.72899C48.2559 9.86377 48.3932 10.0633 48.3932 10.4051ZM48.8171 12.6311H49.561V9.58073H48.8171V12.6311ZM58.1914 12.6311H57.157L55.7744 10.3442L55.777 12.6311H54.2918L54.0075 11.9511H52.491L52.2184 12.6311H51.3649C51.0093 12.6311 50.5597 12.552 50.308 12.295C50.0489 12.0346 49.918 11.6855 49.918 11.1294C49.918 10.6772 49.9976 10.2642 50.3106 9.93768C50.5467 9.69421 50.9149 9.58116 51.418 9.58116H52.1227V10.2342H51.4336C51.1671 10.2342 51.0154 10.2751 50.8702 10.4164C50.7476 10.5451 50.6606 10.7877 50.6606 11.1081C50.6606 11.4355 50.7258 11.6685 50.8632 11.8246C50.9728 11.9442 51.1775 11.9803 51.3702 11.9803H51.698L52.7253 9.58116H53.8175L55.0527 12.4663V9.58116H56.1644L57.4457 11.705V9.58116H58.1914V12.6311ZM34.1069 13.232H35.353L35.6339 12.552H36.2626L36.5425 13.232H38.9947V12.7129L39.2138 13.2337H40.4847L40.7029 12.7063V13.232H46.7959L46.7928 12.1194H46.9107C46.9937 12.1211 47.0185 12.1307 47.0185 12.2676V13.232H50.1676V12.9733C50.4219 13.1098 50.818 13.232 51.3362 13.232H52.6627L52.9458 12.552H53.5753L53.8558 13.232H56.4079V12.5872L56.7953 13.232H58.8392V8.97683H56.8157V9.48073L56.5331 8.97683H54.4531V9.48073L54.1932 8.97683H51.3854C50.9149 8.97683 50.5006 9.04161 50.1676 9.22508V8.97683H48.2324V9.22508C48.0172 9.03639 47.728 8.97683 47.4076 8.97683H40.329L39.8521 10.0772L39.3669 8.97683H37.1378V9.48073L36.8904 8.97683H34.9895L34.1069 10.9981V13.232Z" fill="white"/>
<path fill-rule="evenodd" clip-rule="evenodd" d="M60.0819 15.4826H58.7506C58.618 15.4826 58.5298 15.4879 58.4585 15.537C58.3819 15.5857 58.3498 15.6618 58.3498 15.7587C58.3498 15.8718 58.415 15.95 58.5119 15.9839C58.585 16.0109 58.6698 16.0179 58.7941 16.0196L59.1845 16.0296C59.5828 16.0409 59.851 16.1087 60.0141 16.2744C60.0415 16.2987 60.061 16.3279 60.0819 16.3513V15.4826ZM60.0819 17.4944C59.9028 17.7544 59.558 17.8852 59.0902 17.8852H57.6815V17.2296H59.0858C59.2228 17.2296 59.3211 17.2109 59.3815 17.1539C59.4306 17.1091 59.468 17.04 59.468 16.9561C59.468 16.8661 59.4306 16.7948 59.3797 16.7539C59.3228 16.7057 59.2476 16.6861 59.1215 16.6844C58.4372 16.6631 57.5828 16.7057 57.5828 15.7409C57.5828 15.2987 57.865 14.8331 58.6276 14.8331H60.0819V14.2261H58.7311C58.3232 14.2261 58.028 14.3227 57.8172 14.4766V14.2261H55.8202C55.5042 14.2261 55.1298 14.3057 54.9498 14.4766L54.9524 14.2261H51.3868V14.4766C51.1029 14.2718 50.6255 14.2261 50.4016 14.2261H48.0534V14.4766C47.8277 14.2583 47.3312 14.2261 47.0256 14.2261H44.3935L43.7922 14.88L43.2283 14.2261H39.2966V18.4839H43.1548L43.7756 17.8222L44.3604 18.4839L46.7352 18.4856V17.4844H46.9704C47.2838 17.4887 47.6586 17.4774 47.9864 17.3357V18.4839H49.9468V17.3739H50.0412C50.1621 17.3739 50.1742 17.3809 50.1742 17.5004V18.4839H56.1315C56.5072 18.4839 56.902 18.387 57.1228 18.213V18.4839H59.0128C59.4063 18.4839 59.7884 18.4296 60.0819 18.2891V17.4944ZM57.172 16.2744C57.3146 16.4222 57.3902 16.6087 57.3902 16.9213C57.3902 17.5796 56.9793 17.8852 56.2454 17.8852H54.8233V17.2296H56.2389C56.3789 17.2296 56.4759 17.2109 56.5394 17.1539C56.5876 17.1091 56.6233 17.04 56.6233 16.9561C56.6233 16.8661 56.5841 16.7948 56.5341 16.7539C56.4781 16.7057 56.402 16.6861 56.2754 16.6844C55.5915 16.6631 54.7398 16.7057 54.7398 15.7409C54.7398 15.2987 55.0176 14.8331 55.7794 14.8331H57.2433V15.4826H55.9076C55.7733 15.4826 55.6859 15.4879 55.6128 15.537C55.5337 15.5857 55.5042 15.6618 55.5042 15.7587C55.5042 15.8718 55.572 15.95 55.6646 15.9839C55.7394 16.0109 55.8202 16.0179 55.9459 16.0196L56.3389 16.0296C56.7372 16.0409 57.0063 16.1087 57.172 16.2744ZM50.5916 16.0874C50.496 16.1435 50.3738 16.1492 50.2334 16.1492H49.3469V15.4657H50.2451C50.3738 15.4657 50.506 15.4683 50.5916 15.5183C50.6864 15.5696 50.7429 15.6635 50.7429 15.7953C50.7429 15.9244 50.6864 16.0296 50.5916 16.0874ZM51.0325 16.467C51.1947 16.5257 51.3273 16.6335 51.3894 16.7226C51.492 16.8722 51.509 17.0113 51.5099 17.2796V17.8852H50.7794V17.5039C50.7794 17.3187 50.7973 17.0478 50.6607 16.907C50.5555 16.7948 50.3925 16.77 50.1273 16.77H49.3469V17.8852H48.6151V14.8331H50.2973C50.6677 14.8331 50.9368 14.8483 51.1755 14.9774C51.4055 15.1153 51.5481 15.3087 51.5481 15.6561C51.5481 16.1409 51.2247 16.3896 51.0325 16.467ZM51.9538 14.8331H54.3885V15.4657H52.6803V16.0179H54.3459V16.6409H52.6803V17.2474L54.3885 17.2509V17.8852H51.9538V14.8331ZM47.0356 16.2405H46.0913V15.4657H47.0434C47.3065 15.4657 47.4886 15.5705 47.4886 15.8396C47.4886 16.1026 47.3151 16.2405 47.0356 16.2405ZM45.3652 17.6083L44.2478 16.3652L45.3652 15.1609V17.6083ZM42.4748 17.2474H40.6822V16.6409H42.2826V16.0179H40.6822V15.4657H42.51L43.3061 16.3531L42.4748 17.2474ZM48.2708 15.8396C48.2708 16.6844 47.6404 16.8609 47.0012 16.8609H46.0913V17.8852H44.6761L43.7778 16.8757L42.8448 17.8852H39.9574V14.8331H42.8896L43.7865 15.8326L44.7134 14.8331H47.0434C47.6225 14.8331 48.2708 14.9927 48.2708 15.8396Z" fill="white"/>
<path fill-rule="evenodd" clip-rule="evenodd" d="M48.3932 10.4051C48.3932 10.8877 48.07 11.1419 47.8826 11.2171C48.0417 11.2784 48.1769 11.3845 48.2404 11.4749C48.3434 11.6245 48.3634 11.7628 48.3634 12.0319V12.631H47.6282L47.6246 12.2476C47.6246 12.0659 47.6435 11.8019 47.5074 11.6558C47.4004 11.5467 47.2402 11.5242 46.9759 11.5242L46.1939 11.5241V12.631L45.4637 12.6311V9.58116L47.1439 9.58105C47.5135 9.58105 47.7889 9.59334 48.025 9.72899C48.2559 9.86377 48.3932 10.0633 48.3932 10.4051Z" fill="#74BCDC"/>
<path fill-rule="evenodd" clip-rule="evenodd" d="M44.9594 12.6312L42.5225 12.6311V9.58116L44.9594 9.58081V10.2191L43.2533 10.219V10.7664H44.9163V11.3933L43.2538 11.3917V12.0008H44.9594" fill="#74BCDC"/>
<path fill-rule="evenodd" clip-rule="evenodd" d="M41.9803 12.6311H41.2329L41.2286 10.2455L40.174 12.6312H39.534L38.4714 10.2412L38.4708 12.6311L36.9888 12.6312L36.7086 11.9511H35.19L34.9097 12.6312H34.1167L35.4206 9.58081L36.5043 9.58116L37.7438 12.4707V9.58116L38.9366 9.58081L39.8901 11.653L40.766 9.58116H41.9803" fill="#55B2D8"/>
<path fill-rule="evenodd" clip-rule="evenodd" d="M47.4389 10.8342C47.3402 10.8903 47.2215 10.8964 47.0785 10.8964H46.1924V10.219H47.0902C47.2185 10.219 47.3515 10.2238 47.438 10.2707C47.5319 10.3164 47.5902 10.4112 47.5902 10.5411C47.5902 10.6755 47.5328 10.7803 47.4389 10.8342Z" fill="white"/>
<path fill-rule="evenodd" clip-rule="evenodd" d="M36.446 11.3155L35.9452 10.1023L35.4487 11.3153" fill="white"/>
<path d="M82.039 10.9565C83.2691 10.9565 84.2664 11.8941 84.2664 13.0523V13.0536C84.2664 14.2118 83.2691 15.1506 82.039 15.1506C80.8088 15.1506 79.8115 14.2118 79.8115 13.0536V13.0523C79.8115 11.8941 80.8088 10.9565 82.039 10.9565Z" fill="#F47216"/>
<path d="M78.5412 10.9836C78.8926 10.9836 79.1872 11.0545 79.546 11.2257V12.1304C79.2063 11.8178 78.9116 11.6869 78.5219 11.6869C77.7559 11.6869 77.1536 12.2839 77.1536 13.0408C77.1536 13.8389 77.7373 14.4004 78.5598 14.4004C78.9301 14.4004 79.2193 14.2763 79.546 13.9687V14.8739C79.1745 15.0385 78.8735 15.1035 78.5219 15.1035C77.2783 15.1035 76.3119 14.205 76.3119 13.0464C76.3119 11.9001 77.3039 10.9836 78.5412 10.9836ZM74.68 11.0085C75.1391 11.0085 75.559 11.1564 75.9102 11.4456L75.4829 11.9723C75.2701 11.7479 75.069 11.6532 74.8243 11.6532C74.4723 11.6532 74.216 11.8418 74.216 12.0901C74.216 12.3029 74.3598 12.4156 74.8499 12.5863C75.7789 12.9061 76.0542 13.1897 76.0542 13.8159C76.0542 14.5791 75.4588 15.1103 74.6102 15.1103C73.9887 15.1103 73.5369 14.8799 73.1606 14.36L73.6882 13.8817C73.8762 14.2239 74.19 14.4074 74.5796 14.4074C74.9439 14.4074 75.2136 14.1708 75.2136 13.8515C75.2136 13.6859 75.1319 13.544 74.9688 13.4436C74.8867 13.3961 74.724 13.3252 74.4042 13.2191C73.6372 12.9592 73.374 12.6813 73.374 12.1382C73.374 11.493 73.9392 11.0085 74.68 11.0085ZM84.0125 11.0772H84.9046L86.0212 13.7249L87.1523 11.0772H88.0376L86.2288 15.1204H85.7893L84.0125 11.0772ZM72.0363 11.0833H72.853V15.0252H72.0363V11.0833ZM88.4069 11.0833H90.723V11.7512H89.223V12.6262H90.6677V13.2938H89.223V14.3578H90.723V15.0252H88.4069V11.0833ZM93.0028 13.3646C93.6179 13.2467 93.9563 12.8506 93.9563 12.2471C93.9563 11.5091 93.4166 11.0833 92.4746 11.0833H91.2638V15.0253H92.0795V13.4416H92.1861L93.3165 15.0252H94.3208L93.0028 13.3646ZM92.3182 12.898H92.0795V11.7042H92.331C92.8396 11.7042 93.1161 11.9049 93.1161 12.2885C93.1162 12.6848 92.8397 12.898 92.3182 12.898ZM69.4126 11.0833H68.2139V15.0252H69.4064C70.0404 15.0252 70.4984 14.8843 70.9003 14.5702C71.378 14.198 71.6604 13.6371 71.6604 13.057C71.6604 11.8937 70.7371 11.0833 69.4126 11.0833ZM70.3667 14.0446C70.1101 14.2626 69.7768 14.3578 69.2491 14.3578H69.0299V11.7512H69.2491C69.7768 11.7512 70.0969 11.8402 70.3667 12.07C70.6492 12.3068 70.819 12.6737 70.819 13.0514C70.8191 13.4296 70.6492 13.8078 70.3667 14.0446Z" fill="#14110F"/>
<path d="M109.935 20.668C114.141 20.668 117.55 17.2589 117.55 13.0535C117.55 8.8481 114.141 5.43896 109.935 5.43896C105.73 5.43896 102.321 8.8481 102.321 13.0535C102.321 17.2589 105.73 20.668 109.935 20.668Z" fill="#EA001B"/>
<path d="M120.812 20.668C125.018 20.668 128.427 17.2589 128.427 13.0535C128.427 8.8481 125.018 5.43896 120.812 5.43896C116.607 5.43896 113.198 8.8481 113.198 13.0535C113.198 17.2589 116.607 20.668 120.812 20.668Z" fill="#FFA200" fill-opacity="0.8"/>
<defs>
<radialGradient id="paint0_radial_820_5082" cx="0" cy="0" r="1" gradientUnits="userSpaceOnUse" gradientTransform="translate(1144.15 1161.03) scale(7921.16)">
<stop stop-color="#88CDE7"/>
<stop offset="1" stop-color="#2274AD"/>
</radialGradient>
</defs>
</svg>
