<svg width="168" height="168" viewBox="0 0 168 168" fill="none" xmlns="http://www.w3.org/2000/svg">
<path d="M137.46 44.105H30.5401C28.4911 44.105 26.8301 45.766 26.8301 47.815V120.185C26.8301 122.234 28.4911 123.895 30.5401 123.895H137.46C139.509 123.895 141.17 122.234 141.17 120.185V47.815C141.17 45.766 139.509 44.105 137.46 44.105Z" stroke="#E9CC77" stroke-width="4" stroke-linecap="round" stroke-linejoin="round"/>
<path d="M26.8301 55.9648H141.16" stroke="#E9CC77" stroke-width="4" stroke-linecap="round" stroke-linejoin="round"/>
<path d="M41.7002 55.9648V123.895" stroke="#E9CC77" stroke-width="4" stroke-linecap="round" stroke-linejoin="round"/>
<path d="M33.1702 52.415C34.5454 52.415 35.6602 51.3002 35.6602 49.925C35.6602 48.5499 34.5454 47.4351 33.1702 47.4351C31.795 47.4351 30.6802 48.5499 30.6802 49.925C30.6802 51.3002 31.795 52.415 33.1702 52.415Z" fill="#E9CC77"/>
<path d="M78.9201 100.705C86.6742 100.705 92.9601 94.4191 92.9601 86.665C92.9601 78.9109 86.6742 72.625 78.9201 72.625C71.166 72.625 64.8801 78.9109 64.8801 86.665C64.8801 94.4191 71.166 100.705 78.9201 100.705Z" stroke="#E9CC77" stroke-width="4" stroke-linecap="round" stroke-linejoin="round"/>
<path d="M96.7501 108.295C104.504 108.295 110.79 102.009 110.79 94.2549C110.79 86.5008 104.504 80.2148 96.7501 80.2148C88.996 80.2148 82.7101 86.5008 82.7101 94.2549C82.7101 102.009 88.996 108.295 96.7501 108.295Z" fill="#2D3437" stroke="#E9CC77" stroke-width="4" stroke-linecap="round" stroke-linejoin="round"/>
</svg>
