<svg width="168" height="168" viewBox="0 0 168 168" fill="none" xmlns="http://www.w3.org/2000/svg">
<path d="M83.995 76.9297V114.73" stroke="#E9CC77" stroke-width="4" stroke-linecap="round" stroke-linejoin="round"/>
<path d="M100.265 56.2199L83.9851 76.9399L67.7051 56.2199V30.1699C67.7051 26.5799 70.6151 23.6699 74.2051 23.6699H93.7651C97.3551 23.6699 100.265 26.5799 100.265 30.1699V56.2199Z" stroke="#E9CC77" stroke-width="4" stroke-linecap="round" stroke-linejoin="round"/>
<path d="M89.095 144.33H47.675C43.585 144.33 40.265 141.01 40.265 136.92V91.3799H58.495L77.705 114.74H89.105H78.895H90.295L109.505 91.3799H127.735V136.92C127.735 141.01 124.415 144.33 120.325 144.33H78.905" stroke="#E9CC77" stroke-width="4" stroke-linecap="round" stroke-linejoin="round"/>
<path d="M80.365 111.88C80.365 109.88 81.985 108.26 83.985 108.26C85.985 108.26 87.605 109.88 87.605 111.88" stroke="#E9CC77" stroke-width="4" stroke-linecap="round" stroke-linejoin="round"/>
<path d="M52.235 80.8096H56.785" stroke="#E9CC77" stroke-width="4" stroke-linecap="round" stroke-linejoin="round"/>
<path d="M66.7949 87.46L74.9749 97.43" stroke="#E9CC77" stroke-width="4" stroke-linecap="round" stroke-linejoin="round"/>
<path d="M83.995 100.75H87.135" stroke="#E9CC77" stroke-width="4" stroke-linecap="round" stroke-linejoin="round"/>
<path d="M95.785 93.9896L104.045 83.8496" stroke="#E9CC77" stroke-width="4" stroke-linecap="round" stroke-linejoin="round"/>
<path d="M115.915 80.4697H120.465" stroke="#E9CC77" stroke-width="4" stroke-linecap="round" stroke-linejoin="round"/>
</svg>
