<svg width="168" height="168" viewBox="0 0 168 168" fill="none" xmlns="http://www.w3.org/2000/svg">
<path d="M85.295 77.0902C94.5734 77.0902 102.095 69.5686 102.095 60.2902C102.095 51.0118 94.5734 43.4902 85.295 43.4902C76.0166 43.4902 68.495 51.0118 68.495 60.2902C68.495 69.5686 76.0166 77.0902 85.295 77.0902Z" stroke="#E9CC77" stroke-width="4" stroke-linecap="round" stroke-linejoin="round"/>
<path d="M147.115 108.96C149.685 108.96 151.665 106.63 151.185 104.1C148.905 92.0304 138.305 82.9004 125.575 82.9004C112.845 82.9004 102.245 92.0304 99.965 104.1C99.485 106.63 101.465 108.96 104.035 108.96H147.105H147.115Z" stroke="#E9CC77" stroke-width="4" stroke-linecap="round" stroke-linejoin="round"/>
<path d="M125.575 77.8801C132.423 77.8801 137.975 72.3284 137.975 65.4801C137.975 58.6317 132.423 53.0801 125.575 53.0801C118.727 53.0801 113.175 58.6317 113.175 65.4801C113.175 72.3284 118.727 77.8801 125.575 77.8801Z" stroke="#E9CC77" stroke-width="4" stroke-linecap="round" stroke-linejoin="round"/>
<path d="M63.965 124.51C66.535 124.51 68.515 122.18 68.035 119.65C65.755 107.58 55.155 98.4502 42.425 98.4502C29.695 98.4502 19.095 107.58 16.815 119.65C16.335 122.18 18.315 124.51 20.885 124.51H63.955H63.965Z" stroke="#E9CC77" stroke-width="4" stroke-linecap="round" stroke-linejoin="round"/>
<path d="M42.425 93.4304C49.2733 93.4304 54.825 87.8787 54.825 81.0304C54.825 74.182 49.2733 68.6304 42.425 68.6304C35.5767 68.6304 30.025 74.182 30.025 81.0304C30.025 87.8787 35.5767 93.4304 42.425 93.4304Z" stroke="#E9CC77" stroke-width="4" stroke-linecap="round" stroke-linejoin="round"/>
<path d="M116.215 119.22C118.685 119.22 120.645 117.07 120.325 114.62C118.075 97.2801 103.245 83.8901 85.295 83.8901C67.345 83.8901 52.515 97.2801 50.265 114.62C49.945 117.07 51.905 119.22 54.375 119.22H116.215Z" fill="#2D3437" stroke="#E9CC77" stroke-width="4" stroke-linecap="round" stroke-linejoin="round"/>
</svg>
