<svg width="168" height="168" viewBox="0 0 168 168" fill="none" xmlns="http://www.w3.org/2000/svg">
<path d="M122.995 78.2352C123.765 83.3452 123.495 88.4652 122.305 93.3252L132.325 98.0252L125.685 112.195L115.665 107.495C112.685 111.515 108.925 114.995 104.495 117.675L108.255 128.085L93.535 133.405L89.775 122.995C84.665 123.765 79.545 123.495 74.685 122.305L69.985 132.325L55.805 125.675L60.505 115.655C56.485 112.675 53.005 108.915 50.325 104.495L39.915 108.255L34.595 93.5352L45.005 89.7752C44.235 84.6652 44.505 79.5452 45.695 74.6852L35.675 69.9852L42.325 55.8052L52.345 60.5052C55.325 56.4852 59.085 53.0052 63.505 50.3252L59.745 39.9152L74.465 34.5952L78.225 45.0052C83.345 44.2252 88.465 44.5052 93.325 45.6952L98.025 35.6752L112.195 42.3252L107.495 52.3452C111.515 55.3252 114.995 59.0852 117.675 63.5052L128.085 59.7452L133.405 74.4652L122.995 78.2252V78.2352Z" stroke="#E9CC77" stroke-width="4.53" stroke-linecap="round" stroke-linejoin="round"/>
<path d="M84.005 102.875C94.4211 102.875 102.865 94.4314 102.865 84.0153C102.865 73.5992 94.4211 65.1553 84.005 65.1553C73.5889 65.1553 65.145 73.5992 65.145 84.0153C65.145 94.4314 73.5889 102.875 84.005 102.875Z" stroke="#E9CC77" stroke-width="4.53" stroke-linecap="round" stroke-linejoin="round"/>
</svg>
