<svg width="168" height="168" viewBox="0 0 168 168" fill="none" xmlns="http://www.w3.org/2000/svg">
<path d="M84 136.22C112.84 136.22 136.22 112.84 136.22 83.9998C136.22 55.1595 112.84 31.7798 84 31.7798C55.1597 31.7798 31.78 55.1595 31.78 83.9998C31.78 112.84 55.1597 136.22 84 136.22Z" stroke="#E9CC77" stroke-width="4" stroke-linecap="round" stroke-linejoin="round"/>
<path d="M83.9999 118.32C102.954 118.32 118.32 102.954 118.32 83.9997C118.32 65.0453 102.954 49.6797 83.9999 49.6797C65.0455 49.6797 49.6799 65.0453 49.6799 83.9997C49.6799 102.954 65.0455 118.32 83.9999 118.32Z" stroke="#E9CC77" stroke-width="4" stroke-linecap="round" stroke-linejoin="round"/>
<path d="M84 96.2597C90.771 96.2597 96.26 90.7708 96.26 83.9997C96.26 77.2287 90.771 71.7397 84 71.7397C77.229 71.7397 71.74 77.2287 71.74 83.9997C71.74 90.7708 77.229 96.2597 84 96.2597Z" stroke="#E9CC77" stroke-width="4" stroke-linecap="round" stroke-linejoin="round"/>
<path d="M98.65 72.37C101.87 72.37 104.48 69.7598 104.48 66.54C104.48 63.3201 101.87 60.71 98.65 60.71C95.4302 60.71 92.8201 63.3201 92.8201 66.54C92.8201 69.7598 95.4302 72.37 98.65 72.37Z" fill="#E9CC77"/>
<path d="M77.2801 127.6C61.9501 125.26 49.2101 115.02 43.3501 101.17" stroke="#E9CC77" stroke-width="6" stroke-linecap="round" stroke-linejoin="round"/>
</svg>
